<svg id="Icon_feather-settings" data-name="Icon feather-settings" xmlns="http://www.w3.org/2000/svg" width="29.25" height="29.25" viewBox="0 0 29.25 29.25">
  <path id="Path_10" data-name="Path 10" d="M17.489,13.807a3.682,3.682,0,1,1-3.682-3.682A3.682,3.682,0,0,1,17.489,13.807Z" transform="translate(0.818 0.818)" fill="none" stroke="#000" stroke-linecap="round" stroke-linejoin="round" stroke-width="2.25"/>
  <path id="Path_11" data-name="Path 11" d="M23.707,18.307a2.025,2.025,0,0,0,.405,2.234l.074.074a2.456,2.456,0,1,1-3.473,3.473l-.074-.074a2.041,2.041,0,0,0-3.461,1.448v.209a2.455,2.455,0,1,1-4.909,0v-.11a2.025,2.025,0,0,0-1.325-1.853,2.025,2.025,0,0,0-2.234.4l-.074.074a2.456,2.456,0,1,1-3.473-3.473l.074-.074a2.041,2.041,0,0,0-1.448-3.461H3.58a2.455,2.455,0,0,1,0-4.909h.11a2.025,2.025,0,0,0,1.853-1.325A2.025,2.025,0,0,0,5.138,8.71l-.074-.074A2.456,2.456,0,1,1,8.538,5.163l.074.074a2.025,2.025,0,0,0,2.234.405h.1A2.025,2.025,0,0,0,12.17,3.788V3.58a2.455,2.455,0,1,1,4.909,0v.11A2.041,2.041,0,0,0,20.54,5.138l.074-.074a2.456,2.456,0,1,1,3.473,3.473l-.074.074a2.025,2.025,0,0,0-.405,2.234v.1a2.025,2.025,0,0,0,1.853,1.227h.209a2.455,2.455,0,1,1,0,4.909h-.11a2.025,2.025,0,0,0-1.853,1.227Z" transform="translate(0 0)" fill="none" stroke="#000" stroke-linecap="round" stroke-linejoin="round" stroke-width="2.25"/>
</svg>
