<svg xmlns="http://www.w3.org/2000/svg" width="12.9" height="12.902" viewBox="0 0 12.9 12.902">
  <defs>
    <style>
      .cls-1 {
        fill: #606060;
      }
    </style>
  </defs>
  <path id="Icon_awesome-search" data-name="Icon awesome-search" class="cls-1" d="M.175,11.155,2.688,8.643a.6.6,0,0,1,.428-.176h.411a5.239,5.239,0,1,1,.907.907v.411a.6.6,0,0,1-.176.428L1.745,12.725a.6.6,0,0,1-.854,0l-.713-.713a.608.608,0,0,1,0-.857ZM7.659,8.466A3.225,3.225,0,1,0,4.434,5.241,3.223,3.223,0,0,0,7.659,8.466Z"/>
</svg>
