<svg xmlns="http://www.w3.org/2000/svg" width="16.633" height="15.593" viewBox="0 0 16.633 15.593">
  <path id="Icon_metro-cart" data-name="Icon metro-cart" d="M12.966,17.89a1.559,1.559,0,1,0,1.559-1.559A1.559,1.559,0,0,0,12.966,17.89Zm-10.4,0A1.559,1.559,0,1,0,4.13,16.331,1.559,1.559,0,0,0,2.571,17.89Zm0-6.757V4.9H15.045a1.04,1.04,0,0,1,1.04-1.04H19.2V4.9H17.124l-.781,6.693a2.079,2.079,0,0,1-1.3,3.7H2.571v-1.04H15.045a1.04,1.04,0,0,0,1.04-1.04s0-.007,0-.011L2.571,11.133Z" transform="translate(-2.571 -3.856)"/>
</svg>
